# 3ds Max Wavefront OBJ Exporter v0.97b - (c)2007 guruware
# File Created: 15.04.2019 14:52:57

mtllib Chain.mtl

#
# object Plane001
#

v  0.000003 -78.740158 39.370079
v  0.000003 -78.740158 78.740158
v  0.000002 -39.370079 78.740158
v  0.000002 -39.370079 39.370079
v  0.000000 0.000000 78.740158
v  0.000000 0.000000 39.370079
v  -0.000002 39.370079 78.740158
v  -0.000002 39.370079 39.370079
v  -0.000003 78.740158 78.740158
v  -0.000003 78.740158 39.370079
v  0.000003 -78.740158 -0.000000
v  0.000002 -39.370079 -0.000000
v  0.000000 0.000000 -0.000000
v  -0.000002 39.370079 -0.000000
v  -0.000003 78.740158 -0.000000
v  0.000003 -78.740158 -39.370079
v  0.000002 -39.370079 -39.370079
v  0.000000 0.000000 -39.370079
v  -0.000002 39.370079 -39.370079
v  -0.000003 78.740158 -39.370079
v  0.000003 -78.740158 -78.740158
v  0.000002 -39.370079 -78.740158
v  0.000000 0.000000 -78.740158
v  -0.000002 39.370079 -78.740158
v  -0.000003 78.740158 -78.740158
# 25 vertices

vn -1.000000 -0.000000 -0.000000
# 1 vertex normals

vt 0.000000 0.250000 0.000000
vt 0.000000 0.000000 0.000000
vt 0.250000 0.000000 0.000000
vt 0.250000 0.250000 0.000000
vt 0.500000 0.000000 0.000000
vt 0.500000 0.250000 0.000000
vt 0.750000 0.000000 0.000000
vt 0.750000 0.250000 0.000000
vt 1.000000 0.000000 0.000000
vt 1.000000 0.250000 0.000000
vt 0.000000 0.500000 0.000000
vt 0.250000 0.500000 0.000000
vt 0.500000 0.500000 0.000000
vt 0.750000 0.500000 0.000000
vt 1.000000 0.500000 0.000000
vt 0.000000 0.750000 0.000000
vt 0.250000 0.750000 0.000000
vt 0.500000 0.750000 0.000000
vt 0.750000 0.750000 0.000000
vt 1.000000 0.750000 0.000000
vt 0.000000 1.000000 0.000000
vt 0.250000 1.000000 0.000000
vt 0.500000 1.000000 0.000000
vt 0.750000 1.000000 0.000000
vt 1.000000 1.000000 0.000000
# 25 texture coords

o Plane001
g Plane001
usemtl wire_088144225
s 1
f -25/-25/-1 -24/-24/-1 -23/-23/-1 -22/-22/-1 
f -22/-22/-1 -23/-23/-1 -21/-21/-1 -20/-20/-1 
f -20/-20/-1 -21/-21/-1 -19/-19/-1 -18/-18/-1 
f -18/-18/-1 -19/-19/-1 -17/-17/-1 -16/-16/-1 
f -15/-15/-1 -25/-25/-1 -22/-22/-1 -14/-14/-1 
f -14/-14/-1 -22/-22/-1 -20/-20/-1 -13/-13/-1 
f -13/-13/-1 -20/-20/-1 -18/-18/-1 -12/-12/-1 
f -12/-12/-1 -18/-18/-1 -16/-16/-1 -11/-11/-1 
f -10/-10/-1 -15/-15/-1 -14/-14/-1 -9/-9/-1 
f -9/-9/-1 -14/-14/-1 -13/-13/-1 -8/-8/-1 
f -8/-8/-1 -13/-13/-1 -12/-12/-1 -7/-7/-1 
f -7/-7/-1 -12/-12/-1 -11/-11/-1 -6/-6/-1 
f -5/-5/-1 -10/-10/-1 -9/-9/-1 -4/-4/-1 
f -4/-4/-1 -9/-9/-1 -8/-8/-1 -3/-3/-1 
f -3/-3/-1 -8/-8/-1 -7/-7/-1 -2/-2/-1 
f -2/-2/-1 -7/-7/-1 -6/-6/-1 -1/-1/-1 
# 16 polygons

#
# object Box001
#

v  -1.968508 -78.740158 82.705750
v  -1.968508 -78.740158 78.768738
v  1.968500 -78.740158 78.768738
v  1.968500 -78.740158 82.705750
v  -1.968508 78.740158 82.705750
v  1.968500 78.740158 82.705750
v  1.968500 78.740158 78.768738
v  -1.968508 78.740158 78.768738
# 8 vertices

vn -0.577350 -0.577350 0.577350
vn -0.577350 -0.577350 -0.577350
vn 0.577350 -0.577350 -0.577350
vn 0.577350 -0.577350 0.577350
vn -0.577350 0.577350 0.577350
vn 0.577350 0.577350 0.577350
vn 0.577350 0.577350 -0.577350
vn -0.577350 0.577350 -0.577350
# 8 vertex normals

vt 1.000000 0.000000 0.000000
vt 1.000000 1.000000 0.000000
vt 0.000000 1.000000 0.000000
vt 0.000000 0.000000 0.000000
# 4 texture coords

o Box001
g Box001
usemtl wire_088144225
s 2
f -8/-4/-8 -7/-3/-7 -6/-2/-6 -5/-1/-5 
s 4
f -4/-1/-4 -3/-4/-3 -2/-3/-2 -1/-2/-1 
s 8
f -8/-1/-8 -5/-4/-5 -3/-3/-3 -4/-2/-4 
s 16
f -5/-1/-5 -6/-4/-6 -2/-3/-2 -3/-2/-3 
s 32
f -6/-1/-6 -7/-4/-7 -1/-3/-1 -2/-2/-2 
s 64
f -7/-1/-7 -8/-4/-8 -4/-3/-4 -1/-2/-1 
# 6 polygons

#
# object Box002
#

v  -1.968507 -78.740158 -78.780434
v  -1.968507 -78.740158 -82.717445
v  1.968500 -78.740158 -82.717445
v  1.968500 -78.740158 -78.780434
v  -1.968507 78.740158 -78.780434
v  1.968500 78.740158 -78.780434
v  1.968500 78.740158 -82.717445
v  -1.968507 78.740158 -82.717445
# 8 vertices

vn -0.577350 -0.577350 0.577350
vn -0.577350 -0.577350 -0.577350
vn 0.577350 -0.577350 -0.577350
vn 0.577350 -0.577350 0.577350
vn -0.577350 0.577350 0.577350
vn 0.577350 0.577350 0.577350
vn 0.577350 0.577350 -0.577350
vn -0.577350 0.577350 -0.577350
# 8 vertex normals

vt 1.000000 0.000000 0.000000
vt 1.000000 1.000000 0.000000
vt 0.000000 1.000000 0.000000
vt 0.000000 0.000000 0.000000
# 4 texture coords

o Box002
g Box002
usemtl wire_088144225
s 2
f -8/-4/-8 -7/-3/-7 -6/-2/-6 -5/-1/-5 
s 4
f -4/-1/-4 -3/-4/-3 -2/-3/-2 -1/-2/-1 
s 8
f -8/-1/-8 -5/-4/-5 -3/-3/-3 -4/-2/-4 
s 16
f -5/-1/-5 -6/-4/-6 -2/-3/-2 -3/-2/-3 
s 32
f -6/-1/-6 -7/-4/-7 -1/-3/-1 -2/-2/-2 
s 64
f -7/-1/-7 -8/-4/-8 -4/-3/-4 -1/-2/-1 
# 6 polygons

